<svg width="78" height="34" viewBox="0 0 78 34" fill="none" xmlns="http://www.w3.org/2000/svg">
<path d="M21.9078 14.01C22.9242 13.5987 23.4679 12.4691 23.055 11.4487C22.6433 10.4323 19.8794 8.99982 19.8794 8.99982C19.8794 8.99982 18.8874 11.953 19.2988 12.9691C19.7119 13.9896 20.8884 14.4226 21.9078 14.0098V14.01Z" fill="white"/>
<path d="M26.1647 20.0288C26.1647 20.0288 25.1444 22.9035 25.5557 23.9195C25.9685 24.9389 27.1422 25.3742 28.1617 24.9614C29.181 24.5488 29.7213 23.4196 29.3087 22.4003C28.8972 21.3839 26.1647 20.0287 26.1647 20.0287V20.0288Z" fill="white"/>
<path d="M19.78 18.8795C19.78 18.8795 18.6606 21.9759 19.1038 23.0706C19.548 24.168 20.8375 24.6473 21.935 24.2028C23.0296 23.7597 23.5427 22.5511 23.0983 21.4534C22.6549 20.359 19.78 18.8796 19.78 18.8796V18.8795Z" fill="white"/>
<path d="M26.1407 17.9415C26.7656 17.6885 27.0139 16.9518 26.7921 16.404C26.5379 15.776 24.9367 14.9676 24.9367 14.9676C24.9367 14.9676 24.3481 16.6626 24.6022 17.2909C24.824 17.8384 25.5139 18.1953 26.1407 17.9415H26.1407Z" fill="white"/>
<path d="M32.2747 17.6812C32.0205 17.0533 30.4193 16.2448 30.4193 16.2448C30.4193 16.2448 29.8307 17.9399 30.0849 18.5681C30.3067 19.1158 30.9967 19.4727 31.6233 19.219C32.2483 18.9657 32.4968 18.229 32.2747 17.6812L32.2747 17.6812Z" fill="white"/>
<path d="M31.0525 11.6363C30.641 10.6201 27.877 9.18759 27.877 9.18759C27.877 9.18759 26.885 12.1407 27.2964 13.1568C27.7096 14.1774 28.8861 14.6101 29.9054 14.1975C30.9215 13.7863 31.4655 12.657 31.0525 11.6362V11.6363Z" fill="white"/>
<path d="M33.8018 23.7413C33.5476 23.1133 31.9464 22.3049 31.9464 22.3049C31.9464 22.3049 31.3578 23.9999 31.612 24.6282C31.8338 25.1758 32.5236 25.5327 33.1504 25.2788C33.7752 25.0258 34.0236 24.2891 33.8018 23.7413H33.8018Z" fill="white"/>
<path d="M47.6758 21.7256C49.8838 21.7256 51.4629 20.2695 51.4629 18.2393C51.4629 16.3662 50.0752 14.9854 48.2021 14.9854C46.9443 14.9854 45.9736 15.6279 45.5771 16.5918H45.5361C45.4883 14.3633 46.3223 13.0439 47.6963 13.0439C48.4688 13.0439 49.1045 13.4814 49.3027 14.1377H51.333C51.0596 12.5244 49.5898 11.4102 47.71 11.4102C45.1602 11.4102 43.5742 13.3789 43.5742 16.6465C43.5742 17.959 43.8545 19.0732 44.4014 19.9072C45.0918 21.083 46.2607 21.7256 47.6758 21.7256ZM47.6553 20.0781C46.6436 20.0781 45.8574 19.2852 45.8574 18.2803C45.8574 17.2822 46.6367 16.5371 47.6621 16.5371C48.6943 16.5371 49.4531 17.2822 49.4531 18.3008C49.4531 19.292 48.6602 20.0781 47.6553 20.0781ZM56.8154 14.001C56.8154 12.4355 55.9473 11.4443 54.5664 11.4443C53.1924 11.4443 52.3174 12.4355 52.3174 14.001C52.3174 15.5732 53.1924 16.5576 54.5664 16.5576C55.9473 16.5576 56.8154 15.5732 56.8154 14.001ZM54.5664 15.3477C54.1221 15.3477 53.8486 14.8418 53.8486 13.9941C53.8486 13.1465 54.1221 12.6338 54.5664 12.6338C55.0107 12.6338 55.2842 13.1465 55.2842 13.9941C55.2842 14.8418 55.0107 15.3477 54.5664 15.3477ZM54.9492 21.5L58.4219 16.7354L62.1406 11.6357H60.4932L57.123 16.2568L53.2949 21.5H54.9492ZM63.1182 19.0801C63.1182 17.5146 62.25 16.5234 60.8691 16.5234C59.4951 16.5234 58.6201 17.5146 58.6201 19.0801C58.6201 20.6523 59.4951 21.6436 60.8691 21.6436C62.25 21.6436 63.1182 20.6523 63.1182 19.0801ZM60.8691 20.4268C60.4248 20.4268 60.1514 19.9209 60.1514 19.0732C60.1514 18.2256 60.4248 17.7129 60.8691 17.7129C61.3135 17.7129 61.5869 18.2256 61.5869 19.0732C61.5869 19.9209 61.3135 20.4268 60.8691 20.4268Z" fill="white"/>
</svg>
